<mxfile host="app.diagrams.net" agent="Mozilla/5.0 (Windows NT 10.0; Win64; x64) AppleWebKit/537.36 (KHTML, like Gecko) Chrome/128.0.0.0 Safari/537.36" version="24.7.12">
  <diagram name="Página-1" id="h1cHhYX-2p-mCEG1OhZA">
    <mxGraphModel dx="4175" dy="2729" grid="1" gridSize="10" guides="1" tooltips="1" connect="1" arrows="1" fold="1" page="1" pageScale="1" pageWidth="827" pageHeight="1169" math="0" shadow="0">
      <root>
        <mxCell id="0" />
        <mxCell id="1" parent="0" />
        <mxCell id="k82_jvPsIoT7OMSYVDa1-10" value="CADASTRO" style="html=1;overflow=block;blockSpacing=1;whiteSpace=wrap;fontSize=20;fontColor=#ffffff;fontStyle=1;align=center;spacing=9;verticalAlign=middle;strokeOpacity=0;fillOpacity=100;rounded=1;absoluteArcSize=1;arcSize=9;shadow=1;fillColor=#635dff;strokeWidth=2.3;lucidId=xNa-BcHLRBPC;" vertex="1" parent="1">
          <mxGeometry x="-585" y="-1120" width="265" height="42" as="geometry" />
        </mxCell>
        <mxCell id="k82_jvPsIoT7OMSYVDa1-46" value="VER PAGINA" style="rounded=1;whiteSpace=wrap;html=1;" vertex="1" parent="1">
          <mxGeometry x="-585" y="-1050" width="265" height="70" as="geometry" />
        </mxCell>
        <mxCell id="k82_jvPsIoT7OMSYVDa1-48" value="CADASTRAR:&lt;div&gt;NOME&lt;/div&gt;&lt;div&gt;USUÁRIO&lt;/div&gt;&lt;div&gt;SENHA&lt;/div&gt;&lt;div&gt;TELEFONE&lt;/div&gt;&lt;div&gt;SELECIONAR FUNÇÃO&lt;/div&gt;&lt;div&gt;IMAGEM DE PERFIL&lt;/div&gt;" style="rounded=1;whiteSpace=wrap;html=1;" vertex="1" parent="1">
          <mxGeometry x="-585" y="-960" width="265" height="140" as="geometry" />
        </mxCell>
        <mxCell id="k82_jvPsIoT7OMSYVDa1-50" style="edgeStyle=orthogonalEdgeStyle;rounded=0;orthogonalLoop=1;jettySize=auto;html=1;entryX=0;entryY=0.25;entryDx=0;entryDy=0;" edge="1" parent="1" target="k82_jvPsIoT7OMSYVDa1-48">
          <mxGeometry relative="1" as="geometry">
            <mxPoint x="-722.5" y="-1010" as="sourcePoint" />
            <Array as="points">
              <mxPoint x="-652.5" y="-1010" />
              <mxPoint x="-652.5" y="-925" />
            </Array>
          </mxGeometry>
        </mxCell>
        <mxCell id="k82_jvPsIoT7OMSYVDa1-85" style="edgeStyle=orthogonalEdgeStyle;rounded=0;orthogonalLoop=1;jettySize=auto;html=1;entryX=0;entryY=0.25;entryDx=0;entryDy=0;" edge="1" parent="1" target="k82_jvPsIoT7OMSYVDa1-46">
          <mxGeometry relative="1" as="geometry">
            <mxPoint x="-722.5" y="-1010" as="sourcePoint" />
            <Array as="points">
              <mxPoint x="-722.5" y="-1009" />
              <mxPoint x="-652.5" y="-1009" />
              <mxPoint x="-652.5" y="-1033" />
            </Array>
          </mxGeometry>
        </mxCell>
        <mxCell id="k82_jvPsIoT7OMSYVDa1-53" style="edgeStyle=orthogonalEdgeStyle;rounded=0;orthogonalLoop=1;jettySize=auto;html=1;entryX=1;entryY=0.25;entryDx=0;entryDy=0;strokeColor=#0000FF;" edge="1" parent="1" target="k82_jvPsIoT7OMSYVDa1-48">
          <mxGeometry relative="1" as="geometry">
            <mxPoint x="-90" y="-990" as="sourcePoint" />
            <Array as="points">
              <mxPoint x="-90" y="-989" />
              <mxPoint x="-220" y="-989" />
              <mxPoint x="-220" y="-925" />
            </Array>
          </mxGeometry>
        </mxCell>
        <mxCell id="k82_jvPsIoT7OMSYVDa1-83" style="edgeStyle=orthogonalEdgeStyle;rounded=0;orthogonalLoop=1;jettySize=auto;html=1;entryX=1;entryY=0.25;entryDx=0;entryDy=0;strokeColor=#0000FF;" edge="1" parent="1" target="k82_jvPsIoT7OMSYVDa1-46">
          <mxGeometry relative="1" as="geometry">
            <mxPoint x="-90" y="-990" as="sourcePoint" />
            <Array as="points">
              <mxPoint x="-220" y="-990" />
              <mxPoint x="-220" y="-1033" />
            </Array>
          </mxGeometry>
        </mxCell>
        <mxCell id="k82_jvPsIoT7OMSYVDa1-57" style="edgeStyle=orthogonalEdgeStyle;rounded=0;orthogonalLoop=1;jettySize=auto;html=1;entryX=0;entryY=0.75;entryDx=0;entryDy=0;strokeColor=#00FF00;" edge="1" parent="1" target="k82_jvPsIoT7OMSYVDa1-48">
          <mxGeometry relative="1" as="geometry">
            <mxPoint x="-722.5" y="-870" as="sourcePoint" />
            <mxPoint x="-585" y="-730" as="targetPoint" />
            <Array as="points">
              <mxPoint x="-632.5" y="-870" />
              <mxPoint x="-632.5" y="-855" />
            </Array>
          </mxGeometry>
        </mxCell>
        <mxCell id="k82_jvPsIoT7OMSYVDa1-84" style="edgeStyle=orthogonalEdgeStyle;rounded=0;orthogonalLoop=1;jettySize=auto;html=1;entryX=0;entryY=0.75;entryDx=0;entryDy=0;strokeColor=#00FF00;" edge="1" parent="1" target="k82_jvPsIoT7OMSYVDa1-46">
          <mxGeometry relative="1" as="geometry">
            <mxPoint x="-722.5" y="-870" as="sourcePoint" />
            <Array as="points">
              <mxPoint x="-632.5" y="-870" />
              <mxPoint x="-632.5" y="-998" />
            </Array>
          </mxGeometry>
        </mxCell>
        <mxCell id="k82_jvPsIoT7OMSYVDa1-56" style="edgeStyle=orthogonalEdgeStyle;rounded=0;orthogonalLoop=1;jettySize=auto;html=1;entryX=1;entryY=0.75;entryDx=0;entryDy=0;strokeColor=#FF0000;" edge="1" parent="1" target="k82_jvPsIoT7OMSYVDa1-48">
          <mxGeometry relative="1" as="geometry">
            <mxPoint x="-90" y="-870" as="sourcePoint" />
            <mxPoint x="-320" y="-730" as="targetPoint" />
            <Array as="points">
              <mxPoint x="-90" y="-869" />
              <mxPoint x="-160" y="-869" />
              <mxPoint x="-160" y="-855" />
            </Array>
          </mxGeometry>
        </mxCell>
        <mxCell id="k82_jvPsIoT7OMSYVDa1-82" style="edgeStyle=orthogonalEdgeStyle;rounded=0;orthogonalLoop=1;jettySize=auto;html=1;entryX=1;entryY=0.75;entryDx=0;entryDy=0;strokeColor=#FF0000;" edge="1" parent="1" target="k82_jvPsIoT7OMSYVDa1-46">
          <mxGeometry relative="1" as="geometry">
            <mxPoint x="-92" y="-870" as="sourcePoint" />
            <Array as="points">
              <mxPoint x="-92" y="-870" />
              <mxPoint x="-160" y="-870" />
              <mxPoint x="-160" y="-997" />
            </Array>
          </mxGeometry>
        </mxCell>
        <mxCell id="k82_jvPsIoT7OMSYVDa1-58" value="DEMONSTRATIVO DE TABELAS" style="html=1;overflow=block;blockSpacing=1;whiteSpace=wrap;fontSize=20;fontColor=#ffffff;fontStyle=1;align=center;spacing=9;verticalAlign=middle;strokeOpacity=0;fillOpacity=100;rounded=1;absoluteArcSize=1;arcSize=9;shadow=1;fillColor=#635dff;strokeWidth=2.3;lucidId=xNa-BcHLRBPC;" vertex="1" parent="1">
          <mxGeometry x="245" y="-1131" width="262.5" height="60" as="geometry" />
        </mxCell>
        <mxCell id="k82_jvPsIoT7OMSYVDa1-59" value="VER PAGINA" style="rounded=1;whiteSpace=wrap;html=1;" vertex="1" parent="1">
          <mxGeometry x="245" y="-1061" width="267.5" height="140" as="geometry" />
        </mxCell>
        <mxCell id="k82_jvPsIoT7OMSYVDa1-60" value="ABRIR IMAGENS" style="rounded=1;whiteSpace=wrap;html=1;" vertex="1" parent="1">
          <mxGeometry x="247.5" y="-661" width="265" height="60" as="geometry" />
        </mxCell>
        <mxCell id="k82_jvPsIoT7OMSYVDa1-61" value="CADASTRAR" style="rounded=1;whiteSpace=wrap;html=1;" vertex="1" parent="1">
          <mxGeometry x="245" y="-901" width="265" height="60" as="geometry" />
        </mxCell>
        <mxCell id="k82_jvPsIoT7OMSYVDa1-127" style="edgeStyle=orthogonalEdgeStyle;rounded=0;orthogonalLoop=1;jettySize=auto;html=1;entryX=0;entryY=0.5;entryDx=0;entryDy=0;" edge="1" parent="1" source="k82_jvPsIoT7OMSYVDa1-144" target="k82_jvPsIoT7OMSYVDa1-59">
          <mxGeometry relative="1" as="geometry">
            <mxPoint x="-27.5" y="-831" as="sourcePoint" />
            <Array as="points">
              <mxPoint x="152.5" y="-786" />
              <mxPoint x="152.5" y="-991" />
            </Array>
          </mxGeometry>
        </mxCell>
        <mxCell id="k82_jvPsIoT7OMSYVDa1-128" style="edgeStyle=orthogonalEdgeStyle;rounded=0;orthogonalLoop=1;jettySize=auto;html=1;entryX=0;entryY=0.5;entryDx=0;entryDy=0;" edge="1" parent="1" source="k82_jvPsIoT7OMSYVDa1-144" target="k82_jvPsIoT7OMSYVDa1-61">
          <mxGeometry relative="1" as="geometry">
            <mxPoint x="14.926406871193194" y="-819.2842712474617" as="sourcePoint" />
            <Array as="points">
              <mxPoint x="152.5" y="-786" />
              <mxPoint x="152.5" y="-871" />
            </Array>
          </mxGeometry>
        </mxCell>
        <mxCell id="k82_jvPsIoT7OMSYVDa1-129" style="edgeStyle=orthogonalEdgeStyle;rounded=0;orthogonalLoop=1;jettySize=auto;html=1;entryX=0;entryY=0.5;entryDx=0;entryDy=0;" edge="1" parent="1" source="k82_jvPsIoT7OMSYVDa1-144" target="k82_jvPsIoT7OMSYVDa1-123">
          <mxGeometry relative="1" as="geometry">
            <mxPoint x="32.5" y="-791" as="sourcePoint" />
            <Array as="points">
              <mxPoint x="152.5" y="-786" />
              <mxPoint x="152.5" y="-791" />
            </Array>
          </mxGeometry>
        </mxCell>
        <mxCell id="k82_jvPsIoT7OMSYVDa1-130" style="edgeStyle=orthogonalEdgeStyle;rounded=0;orthogonalLoop=1;jettySize=auto;html=1;entryX=0;entryY=0.5;entryDx=0;entryDy=0;" edge="1" parent="1" source="k82_jvPsIoT7OMSYVDa1-144" target="k82_jvPsIoT7OMSYVDa1-124">
          <mxGeometry relative="1" as="geometry">
            <mxPoint x="14.926406871193194" y="-762.7157287525379" as="sourcePoint" />
            <Array as="points">
              <mxPoint x="152.5" y="-786" />
              <mxPoint x="152.5" y="-711" />
            </Array>
          </mxGeometry>
        </mxCell>
        <mxCell id="k82_jvPsIoT7OMSYVDa1-131" style="edgeStyle=orthogonalEdgeStyle;rounded=0;orthogonalLoop=1;jettySize=auto;html=1;entryX=0;entryY=0.5;entryDx=0;entryDy=0;" edge="1" parent="1" source="k82_jvPsIoT7OMSYVDa1-144" target="k82_jvPsIoT7OMSYVDa1-60">
          <mxGeometry relative="1" as="geometry">
            <mxPoint x="7.5" y="-741" as="sourcePoint" />
            <Array as="points">
              <mxPoint x="152.5" y="-786" />
              <mxPoint x="152.5" y="-631" />
            </Array>
          </mxGeometry>
        </mxCell>
        <mxCell id="k82_jvPsIoT7OMSYVDa1-132" style="edgeStyle=orthogonalEdgeStyle;rounded=0;orthogonalLoop=1;jettySize=auto;html=1;entryX=1;entryY=0.25;entryDx=0;entryDy=0;strokeColor=#0000FF;" edge="1" parent="1" target="k82_jvPsIoT7OMSYVDa1-59">
          <mxGeometry relative="1" as="geometry">
            <mxPoint x="717.5" y="-911" as="sourcePoint" />
            <Array as="points">
              <mxPoint x="717.5" y="-910" />
              <mxPoint x="632.5" y="-910" />
              <mxPoint x="632.5" y="-1026" />
            </Array>
          </mxGeometry>
        </mxCell>
        <mxCell id="k82_jvPsIoT7OMSYVDa1-135" style="edgeStyle=orthogonalEdgeStyle;rounded=0;orthogonalLoop=1;jettySize=auto;html=1;entryX=1;entryY=0.25;entryDx=0;entryDy=0;strokeColor=#0000FF;" edge="1" parent="1" target="k82_jvPsIoT7OMSYVDa1-60">
          <mxGeometry relative="1" as="geometry">
            <mxPoint x="717.5" y="-911" as="sourcePoint" />
            <Array as="points">
              <mxPoint x="717.5" y="-910" />
              <mxPoint x="632.5" y="-910" />
              <mxPoint x="632.5" y="-646" />
            </Array>
          </mxGeometry>
        </mxCell>
        <mxCell id="k82_jvPsIoT7OMSYVDa1-133" style="edgeStyle=orthogonalEdgeStyle;rounded=0;orthogonalLoop=1;jettySize=auto;html=1;entryX=1;entryY=0.5;entryDx=0;entryDy=0;strokeColor=#00FF00;" edge="1" parent="1" target="k82_jvPsIoT7OMSYVDa1-59">
          <mxGeometry relative="1" as="geometry">
            <mxPoint x="725.5" y="-791" as="sourcePoint" />
            <Array as="points">
              <mxPoint x="592.5" y="-791" />
              <mxPoint x="592.5" y="-991" />
            </Array>
          </mxGeometry>
        </mxCell>
        <mxCell id="k82_jvPsIoT7OMSYVDa1-136" style="edgeStyle=orthogonalEdgeStyle;rounded=0;orthogonalLoop=1;jettySize=auto;html=1;entryX=1;entryY=0.5;entryDx=0;entryDy=0;strokeColor=#00FF00;" edge="1" parent="1" target="k82_jvPsIoT7OMSYVDa1-60">
          <mxGeometry relative="1" as="geometry">
            <mxPoint x="725.5" y="-791" as="sourcePoint" />
            <Array as="points">
              <mxPoint x="592.5" y="-791" />
              <mxPoint x="592.5" y="-631" />
            </Array>
          </mxGeometry>
        </mxCell>
        <mxCell id="k82_jvPsIoT7OMSYVDa1-134" style="edgeStyle=orthogonalEdgeStyle;rounded=0;orthogonalLoop=1;jettySize=auto;html=1;entryX=1;entryY=0.75;entryDx=0;entryDy=0;strokeColor=#FF0000;" edge="1" parent="1" target="k82_jvPsIoT7OMSYVDa1-59">
          <mxGeometry relative="1" as="geometry">
            <mxPoint x="717.5" y="-661" as="sourcePoint" />
            <Array as="points">
              <mxPoint x="562.5" y="-661" />
              <mxPoint x="562.5" y="-956" />
            </Array>
          </mxGeometry>
        </mxCell>
        <mxCell id="k82_jvPsIoT7OMSYVDa1-137" style="edgeStyle=orthogonalEdgeStyle;rounded=0;orthogonalLoop=1;jettySize=auto;html=1;entryX=1;entryY=0.75;entryDx=0;entryDy=0;strokeColor=#FF0000;" edge="1" parent="1" target="k82_jvPsIoT7OMSYVDa1-60">
          <mxGeometry relative="1" as="geometry">
            <mxPoint x="717.5" y="-661" as="sourcePoint" />
            <Array as="points">
              <mxPoint x="562.5" y="-661" />
              <mxPoint x="562.5" y="-616" />
            </Array>
          </mxGeometry>
        </mxCell>
        <mxCell id="k82_jvPsIoT7OMSYVDa1-101" value="LOGIN" style="html=1;overflow=block;blockSpacing=1;whiteSpace=wrap;fontSize=20;fontColor=#ffffff;fontStyle=1;align=center;spacing=9;verticalAlign=middle;strokeOpacity=0;fillOpacity=100;rounded=1;absoluteArcSize=1;arcSize=9;shadow=1;fillColor=#635dff;strokeWidth=2.3;lucidId=xNa-BcHLRBPC;" vertex="1" parent="1">
          <mxGeometry x="-543.5" y="-559" width="265" height="42" as="geometry" />
        </mxCell>
        <mxCell id="k82_jvPsIoT7OMSYVDa1-102" value="VER PAGINA" style="rounded=1;whiteSpace=wrap;html=1;" vertex="1" parent="1">
          <mxGeometry x="-543.5" y="-489" width="265" height="70" as="geometry" />
        </mxCell>
        <mxCell id="k82_jvPsIoT7OMSYVDa1-103" value="LOGAR:&lt;div&gt;USUÁRIO&lt;/div&gt;&lt;div&gt;SENHA&lt;/div&gt;" style="rounded=1;whiteSpace=wrap;html=1;" vertex="1" parent="1">
          <mxGeometry x="-543.5" y="-399" width="265" height="90" as="geometry" />
        </mxCell>
        <mxCell id="k82_jvPsIoT7OMSYVDa1-105" style="edgeStyle=orthogonalEdgeStyle;rounded=0;orthogonalLoop=1;jettySize=auto;html=1;entryX=0;entryY=0.25;entryDx=0;entryDy=0;" edge="1" parent="1" target="k82_jvPsIoT7OMSYVDa1-102">
          <mxGeometry relative="1" as="geometry">
            <mxPoint x="-788.5" y="-419" as="sourcePoint" />
            <Array as="points">
              <mxPoint x="-788.5" y="-418" />
              <mxPoint x="-698.5" y="-418" />
              <mxPoint x="-698.5" y="-472" />
            </Array>
          </mxGeometry>
        </mxCell>
        <mxCell id="k82_jvPsIoT7OMSYVDa1-121" style="edgeStyle=orthogonalEdgeStyle;rounded=0;orthogonalLoop=1;jettySize=auto;html=1;entryX=0;entryY=0.25;entryDx=0;entryDy=0;" edge="1" parent="1" target="k82_jvPsIoT7OMSYVDa1-116">
          <mxGeometry relative="1" as="geometry">
            <mxPoint x="-788.5" y="-419" as="sourcePoint" />
            <Array as="points">
              <mxPoint x="-698.5" y="-419" />
              <mxPoint x="-698.5" y="-274" />
            </Array>
          </mxGeometry>
        </mxCell>
        <mxCell id="k82_jvPsIoT7OMSYVDa1-122" style="edgeStyle=orthogonalEdgeStyle;rounded=0;orthogonalLoop=1;jettySize=auto;html=1;entryX=0;entryY=0.25;entryDx=0;entryDy=0;" edge="1" parent="1" target="k82_jvPsIoT7OMSYVDa1-103">
          <mxGeometry relative="1" as="geometry">
            <mxPoint x="-788.5" y="-418" as="sourcePoint" />
            <Array as="points">
              <mxPoint x="-698.5" y="-418" />
              <mxPoint x="-698.5" y="-376" />
            </Array>
          </mxGeometry>
        </mxCell>
        <mxCell id="k82_jvPsIoT7OMSYVDa1-107" style="edgeStyle=orthogonalEdgeStyle;rounded=0;orthogonalLoop=1;jettySize=auto;html=1;entryX=1;entryY=0.25;entryDx=0;entryDy=0;strokeColor=#0000FF;" edge="1" parent="1" target="k82_jvPsIoT7OMSYVDa1-103">
          <mxGeometry relative="1" as="geometry">
            <mxPoint x="-48.5" y="-418" as="sourcePoint" />
            <Array as="points">
              <mxPoint x="-68.5" y="-418" />
              <mxPoint x="-138.5" y="-418" />
              <mxPoint x="-138.5" y="-376" />
            </Array>
          </mxGeometry>
        </mxCell>
        <mxCell id="k82_jvPsIoT7OMSYVDa1-108" style="edgeStyle=orthogonalEdgeStyle;rounded=0;orthogonalLoop=1;jettySize=auto;html=1;entryX=1;entryY=0.25;entryDx=0;entryDy=0;strokeColor=#0000FF;" edge="1" parent="1" target="k82_jvPsIoT7OMSYVDa1-102">
          <mxGeometry relative="1" as="geometry">
            <mxPoint x="-50.5" y="-419" as="sourcePoint" />
            <Array as="points">
              <mxPoint x="-138.5" y="-419" />
              <mxPoint x="-138.5" y="-472" />
            </Array>
          </mxGeometry>
        </mxCell>
        <mxCell id="k82_jvPsIoT7OMSYVDa1-119" style="edgeStyle=orthogonalEdgeStyle;rounded=0;orthogonalLoop=1;jettySize=auto;html=1;entryX=1;entryY=0.25;entryDx=0;entryDy=0;strokeColor=#0000FF;" edge="1" parent="1" target="k82_jvPsIoT7OMSYVDa1-116">
          <mxGeometry relative="1" as="geometry">
            <mxPoint x="-50.5" y="-419" as="sourcePoint" />
            <Array as="points">
              <mxPoint x="-50.5" y="-419" />
              <mxPoint x="-138.5" y="-419" />
              <mxPoint x="-138.5" y="-274" />
            </Array>
          </mxGeometry>
        </mxCell>
        <mxCell id="k82_jvPsIoT7OMSYVDa1-110" style="edgeStyle=orthogonalEdgeStyle;rounded=0;orthogonalLoop=1;jettySize=auto;html=1;entryX=0;entryY=0.75;entryDx=0;entryDy=0;strokeColor=#00FF00;" edge="1" parent="1" target="k82_jvPsIoT7OMSYVDa1-103">
          <mxGeometry relative="1" as="geometry">
            <mxPoint x="-543.5" y="-169" as="targetPoint" />
            <mxPoint x="-778.5" y="-298" as="sourcePoint" />
            <Array as="points">
              <mxPoint x="-638.5" y="-298" />
              <mxPoint x="-638.5" y="-332" />
            </Array>
          </mxGeometry>
        </mxCell>
        <mxCell id="k82_jvPsIoT7OMSYVDa1-111" style="edgeStyle=orthogonalEdgeStyle;rounded=0;orthogonalLoop=1;jettySize=auto;html=1;entryX=0;entryY=0.75;entryDx=0;entryDy=0;strokeColor=#00FF00;" edge="1" parent="1" target="k82_jvPsIoT7OMSYVDa1-102">
          <mxGeometry relative="1" as="geometry">
            <Array as="points">
              <mxPoint x="-776.5" y="-299" />
              <mxPoint x="-638.5" y="-299" />
              <mxPoint x="-638.5" y="-436" />
            </Array>
            <mxPoint x="-778.5" y="-299" as="sourcePoint" />
          </mxGeometry>
        </mxCell>
        <mxCell id="k82_jvPsIoT7OMSYVDa1-120" style="edgeStyle=orthogonalEdgeStyle;rounded=0;orthogonalLoop=1;jettySize=auto;html=1;entryX=0;entryY=0.75;entryDx=0;entryDy=0;strokeColor=#00FF00;" edge="1" parent="1" target="k82_jvPsIoT7OMSYVDa1-116">
          <mxGeometry relative="1" as="geometry">
            <mxPoint x="-776.5" y="-299" as="sourcePoint" />
            <Array as="points">
              <mxPoint x="-638.5" y="-299" />
              <mxPoint x="-638.5" y="-244" />
            </Array>
          </mxGeometry>
        </mxCell>
        <mxCell id="k82_jvPsIoT7OMSYVDa1-113" style="edgeStyle=orthogonalEdgeStyle;rounded=0;orthogonalLoop=1;jettySize=auto;html=1;entryX=1;entryY=0.75;entryDx=0;entryDy=0;strokeColor=#FF0000;" edge="1" parent="1" target="k82_jvPsIoT7OMSYVDa1-103">
          <mxGeometry relative="1" as="geometry">
            <mxPoint x="-278.5" y="-169" as="targetPoint" />
            <mxPoint x="-48.5" y="-299" as="sourcePoint" />
            <Array as="points">
              <mxPoint x="-198.5" y="-299" />
              <mxPoint x="-198.5" y="-332" />
            </Array>
          </mxGeometry>
        </mxCell>
        <mxCell id="k82_jvPsIoT7OMSYVDa1-114" style="edgeStyle=orthogonalEdgeStyle;rounded=0;orthogonalLoop=1;jettySize=auto;html=1;entryX=1;entryY=0.75;entryDx=0;entryDy=0;strokeColor=#FF0000;" edge="1" parent="1" target="k82_jvPsIoT7OMSYVDa1-102">
          <mxGeometry relative="1" as="geometry">
            <Array as="points">
              <mxPoint x="-198.5" y="-299" />
              <mxPoint x="-198.5" y="-436" />
            </Array>
            <mxPoint x="-50.5" y="-299" as="sourcePoint" />
          </mxGeometry>
        </mxCell>
        <mxCell id="k82_jvPsIoT7OMSYVDa1-118" style="edgeStyle=orthogonalEdgeStyle;rounded=0;orthogonalLoop=1;jettySize=auto;html=1;entryX=1;entryY=0.75;entryDx=0;entryDy=0;strokeColor=#FF0000;" edge="1" parent="1" target="k82_jvPsIoT7OMSYVDa1-116">
          <mxGeometry relative="1" as="geometry">
            <mxPoint x="-50.5" y="-299" as="sourcePoint" />
            <Array as="points">
              <mxPoint x="-198.5" y="-299" />
              <mxPoint x="-198.5" y="-244" />
            </Array>
          </mxGeometry>
        </mxCell>
        <mxCell id="k82_jvPsIoT7OMSYVDa1-116" value="RECUPERAR SENHA" style="rounded=1;whiteSpace=wrap;html=1;" vertex="1" parent="1">
          <mxGeometry x="-543.5" y="-289" width="265" height="60" as="geometry" />
        </mxCell>
        <mxCell id="k82_jvPsIoT7OMSYVDa1-123" value="EDITAR" style="rounded=1;whiteSpace=wrap;html=1;" vertex="1" parent="1">
          <mxGeometry x="247.5" y="-821" width="265" height="60" as="geometry" />
        </mxCell>
        <mxCell id="k82_jvPsIoT7OMSYVDa1-124" value="DELETAR" style="rounded=1;whiteSpace=wrap;html=1;" vertex="1" parent="1">
          <mxGeometry x="247.5" y="-741" width="265" height="60" as="geometry" />
        </mxCell>
        <mxCell id="k82_jvPsIoT7OMSYVDa1-163" style="edgeStyle=orthogonalEdgeStyle;rounded=0;orthogonalLoop=1;jettySize=auto;html=1;entryX=1;entryY=0.5;entryDx=0;entryDy=0;strokeColor=#00FF00;" edge="1" parent="1" target="k82_jvPsIoT7OMSYVDa1-160">
          <mxGeometry relative="1" as="geometry">
            <mxPoint x="727.5" y="-791" as="sourcePoint" />
            <Array as="points">
              <mxPoint x="592.5" y="-791" />
              <mxPoint x="592.5" y="-551" />
            </Array>
          </mxGeometry>
        </mxCell>
        <mxCell id="k82_jvPsIoT7OMSYVDa1-138" value="APOIO TÉCNICO" style="shape=umlActor;verticalLabelPosition=bottom;verticalAlign=top;html=1;outlineConnect=0;strokeColor=#00FF00;" vertex="1" parent="1">
          <mxGeometry x="727.5" y="-846" width="45" height="90" as="geometry" />
        </mxCell>
        <mxCell id="k82_jvPsIoT7OMSYVDa1-161" style="edgeStyle=orthogonalEdgeStyle;rounded=0;orthogonalLoop=1;jettySize=auto;html=1;entryX=0;entryY=0.5;entryDx=0;entryDy=0;" edge="1" parent="1" target="k82_jvPsIoT7OMSYVDa1-160">
          <mxGeometry relative="1" as="geometry">
            <mxPoint x="62.5" y="-785" as="sourcePoint" />
            <Array as="points">
              <mxPoint x="52.5" y="-786" />
              <mxPoint x="52.5" y="-785" />
              <mxPoint x="152.5" y="-785" />
              <mxPoint x="152.5" y="-551" />
            </Array>
          </mxGeometry>
        </mxCell>
        <mxCell id="k82_jvPsIoT7OMSYVDa1-164" style="edgeStyle=orthogonalEdgeStyle;rounded=0;orthogonalLoop=1;jettySize=auto;html=1;entryX=1;entryY=0.25;entryDx=0;entryDy=0;strokeColor=#0000FF;" edge="1" parent="1" target="k82_jvPsIoT7OMSYVDa1-160">
          <mxGeometry relative="1" as="geometry">
            <mxPoint x="717.5" y="-911" as="sourcePoint" />
            <Array as="points">
              <mxPoint x="632.5" y="-911" />
              <mxPoint x="632.5" y="-566" />
            </Array>
          </mxGeometry>
        </mxCell>
        <mxCell id="k82_jvPsIoT7OMSYVDa1-145" value="INSTRUTORES" style="shape=umlActor;verticalLabelPosition=bottom;verticalAlign=top;html=1;outlineConnect=0;strokeColor=#0000FF;" vertex="1" parent="1">
          <mxGeometry x="727.5" y="-971" width="45" height="90" as="geometry" />
        </mxCell>
        <mxCell id="k82_jvPsIoT7OMSYVDa1-162" style="edgeStyle=orthogonalEdgeStyle;rounded=0;orthogonalLoop=1;jettySize=auto;html=1;entryX=1;entryY=0.75;entryDx=0;entryDy=0;strokeColor=#FF0000;" edge="1" parent="1" target="k82_jvPsIoT7OMSYVDa1-160">
          <mxGeometry relative="1" as="geometry">
            <mxPoint x="717.5" y="-661" as="sourcePoint" />
            <Array as="points">
              <mxPoint x="562.5" y="-661" />
              <mxPoint x="562.5" y="-536" />
            </Array>
          </mxGeometry>
        </mxCell>
        <mxCell id="k82_jvPsIoT7OMSYVDa1-146" value="ESPECIALISTAS" style="shape=umlActor;verticalLabelPosition=bottom;verticalAlign=top;html=1;outlineConnect=0;strokeColor=#FF0000;" vertex="1" parent="1">
          <mxGeometry x="727.5" y="-711" width="45" height="90" as="geometry" />
        </mxCell>
        <mxCell id="k82_jvPsIoT7OMSYVDa1-152" value="COORDENADORES" style="shape=umlActor;verticalLabelPosition=bottom;verticalAlign=top;html=1;outlineConnect=0;" vertex="1" parent="1">
          <mxGeometry x="-762.5" y="-1050" width="45" height="90" as="geometry" />
        </mxCell>
        <mxCell id="k82_jvPsIoT7OMSYVDa1-154" value="INSTRUTORES" style="shape=umlActor;verticalLabelPosition=bottom;verticalAlign=top;html=1;outlineConnect=0;strokeColor=#0000FF;" vertex="1" parent="1">
          <mxGeometry x="-92.5" y="-1035" width="45" height="90" as="geometry" />
        </mxCell>
        <mxCell id="k82_jvPsIoT7OMSYVDa1-156" value="APOIO TÉCNICO" style="shape=umlActor;verticalLabelPosition=bottom;verticalAlign=top;html=1;outlineConnect=0;strokeColor=#00FF00;" vertex="1" parent="1">
          <mxGeometry x="-762.5" y="-920" width="45" height="90" as="geometry" />
        </mxCell>
        <mxCell id="k82_jvPsIoT7OMSYVDa1-158" value="ESPECIALISTAS" style="shape=umlActor;verticalLabelPosition=bottom;verticalAlign=top;html=1;outlineConnect=0;strokeColor=#FF0000;" vertex="1" parent="1">
          <mxGeometry x="-92.5" y="-910" width="45" height="90" as="geometry" />
        </mxCell>
        <mxCell id="k82_jvPsIoT7OMSYVDa1-160" value="GERAR PDF" style="rounded=1;whiteSpace=wrap;html=1;" vertex="1" parent="1">
          <mxGeometry x="247.5" y="-581" width="265" height="60" as="geometry" />
        </mxCell>
        <mxCell id="k82_jvPsIoT7OMSYVDa1-165" value="RESERVAR SALA" style="html=1;overflow=block;blockSpacing=1;whiteSpace=wrap;fontSize=20;fontColor=#ffffff;fontStyle=1;align=center;spacing=9;verticalAlign=middle;strokeOpacity=0;fillOpacity=100;rounded=1;absoluteArcSize=1;arcSize=9;shadow=1;fillColor=#635dff;strokeWidth=2.3;lucidId=xNa-BcHLRBPC;" vertex="1" parent="1">
          <mxGeometry x="288.75" y="-440" width="262.5" height="60" as="geometry" />
        </mxCell>
        <mxCell id="k82_jvPsIoT7OMSYVDa1-166" value="VER PAGINA" style="rounded=1;whiteSpace=wrap;html=1;" vertex="1" parent="1">
          <mxGeometry x="286.25" y="-355" width="265" height="70" as="geometry" />
        </mxCell>
        <mxCell id="k82_jvPsIoT7OMSYVDa1-168" value="RESERVAR SALA" style="rounded=1;whiteSpace=wrap;html=1;" vertex="1" parent="1">
          <mxGeometry x="285" y="-255" width="265" height="65" as="geometry" />
        </mxCell>
        <mxCell id="k82_jvPsIoT7OMSYVDa1-181" value="DELETAR RESERVA" style="rounded=1;whiteSpace=wrap;html=1;" vertex="1" parent="1">
          <mxGeometry x="285" y="-160" width="265" height="60" as="geometry" />
        </mxCell>
        <mxCell id="k82_jvPsIoT7OMSYVDa1-202" style="edgeStyle=orthogonalEdgeStyle;rounded=0;orthogonalLoop=1;jettySize=auto;html=1;entryX=1;entryY=0.5;entryDx=0;entryDy=0;strokeColor=#00FF00;" edge="1" parent="1" source="k82_jvPsIoT7OMSYVDa1-183" target="k82_jvPsIoT7OMSYVDa1-168">
          <mxGeometry relative="1" as="geometry">
            <Array as="points">
              <mxPoint x="621.5" y="-225" />
              <mxPoint x="621.5" y="-223" />
            </Array>
          </mxGeometry>
        </mxCell>
        <mxCell id="k82_jvPsIoT7OMSYVDa1-203" style="edgeStyle=orthogonalEdgeStyle;rounded=0;orthogonalLoop=1;jettySize=auto;html=1;entryX=1;entryY=0.5;entryDx=0;entryDy=0;strokeColor=#00FF00;" edge="1" parent="1" source="k82_jvPsIoT7OMSYVDa1-183" target="k82_jvPsIoT7OMSYVDa1-166">
          <mxGeometry relative="1" as="geometry" />
        </mxCell>
        <mxCell id="k82_jvPsIoT7OMSYVDa1-183" value="APOIO TÉCNICO" style="shape=umlActor;verticalLabelPosition=bottom;verticalAlign=top;html=1;outlineConnect=0;strokeColor=#00FF00;" vertex="1" parent="1">
          <mxGeometry x="692.5" y="-270" width="45" height="90" as="geometry" />
        </mxCell>
        <mxCell id="k82_jvPsIoT7OMSYVDa1-194" style="edgeStyle=orthogonalEdgeStyle;rounded=0;orthogonalLoop=1;jettySize=auto;html=1;entryX=0;entryY=0.25;entryDx=0;entryDy=0;" edge="1" parent="1" source="k82_jvPsIoT7OMSYVDa1-185" target="k82_jvPsIoT7OMSYVDa1-166">
          <mxGeometry relative="1" as="geometry">
            <mxPoint x="142.5" y="-320" as="sourcePoint" />
          </mxGeometry>
        </mxCell>
        <mxCell id="k82_jvPsIoT7OMSYVDa1-196" style="edgeStyle=orthogonalEdgeStyle;rounded=0;orthogonalLoop=1;jettySize=auto;html=1;entryX=0;entryY=0.5;entryDx=0;entryDy=0;" edge="1" parent="1" source="k82_jvPsIoT7OMSYVDa1-185" target="k82_jvPsIoT7OMSYVDa1-168">
          <mxGeometry relative="1" as="geometry" />
        </mxCell>
        <mxCell id="k82_jvPsIoT7OMSYVDa1-197" style="edgeStyle=orthogonalEdgeStyle;rounded=0;orthogonalLoop=1;jettySize=auto;html=1;entryX=0;entryY=0.25;entryDx=0;entryDy=0;" edge="1" parent="1" source="k82_jvPsIoT7OMSYVDa1-185" target="k82_jvPsIoT7OMSYVDa1-181">
          <mxGeometry relative="1" as="geometry" />
        </mxCell>
        <mxCell id="k82_jvPsIoT7OMSYVDa1-185" value="COORDENADORES" style="shape=umlActor;verticalLabelPosition=bottom;verticalAlign=top;html=1;outlineConnect=0;" vertex="1" parent="1">
          <mxGeometry x="102.5" y="-370" width="45" height="90" as="geometry" />
        </mxCell>
        <mxCell id="k82_jvPsIoT7OMSYVDa1-200" style="edgeStyle=orthogonalEdgeStyle;rounded=0;orthogonalLoop=1;jettySize=auto;html=1;entryX=1;entryY=0.25;entryDx=0;entryDy=0;strokeColor=#0000FF;" edge="1" parent="1" source="k82_jvPsIoT7OMSYVDa1-187" target="k82_jvPsIoT7OMSYVDa1-166">
          <mxGeometry relative="1" as="geometry">
            <Array as="points">
              <mxPoint x="652.5" y="-355" />
              <mxPoint x="652.5" y="-337" />
            </Array>
          </mxGeometry>
        </mxCell>
        <mxCell id="k82_jvPsIoT7OMSYVDa1-201" style="edgeStyle=orthogonalEdgeStyle;rounded=0;orthogonalLoop=1;jettySize=auto;html=1;entryX=1;entryY=0.25;entryDx=0;entryDy=0;strokeColor=#0000FF;" edge="1" parent="1" source="k82_jvPsIoT7OMSYVDa1-187" target="k82_jvPsIoT7OMSYVDa1-168">
          <mxGeometry relative="1" as="geometry">
            <Array as="points">
              <mxPoint x="652.5" y="-355" />
              <mxPoint x="652.5" y="-239" />
            </Array>
          </mxGeometry>
        </mxCell>
        <mxCell id="k82_jvPsIoT7OMSYVDa1-187" value="INSTRUTORES" style="shape=umlActor;verticalLabelPosition=bottom;verticalAlign=top;html=1;outlineConnect=0;strokeColor=#0000FF;" vertex="1" parent="1">
          <mxGeometry x="692.5" y="-400" width="45" height="90" as="geometry" />
        </mxCell>
        <mxCell id="k82_jvPsIoT7OMSYVDa1-204" style="edgeStyle=orthogonalEdgeStyle;rounded=0;orthogonalLoop=1;jettySize=auto;html=1;entryX=1;entryY=0.75;entryDx=0;entryDy=0;strokeColor=#FF0000;" edge="1" parent="1" source="k82_jvPsIoT7OMSYVDa1-189" target="k82_jvPsIoT7OMSYVDa1-166">
          <mxGeometry relative="1" as="geometry">
            <Array as="points">
              <mxPoint x="602.5" y="-85" />
              <mxPoint x="602.5" y="-303" />
            </Array>
          </mxGeometry>
        </mxCell>
        <mxCell id="k82_jvPsIoT7OMSYVDa1-205" style="edgeStyle=orthogonalEdgeStyle;rounded=0;orthogonalLoop=1;jettySize=auto;html=1;entryX=1;entryY=0.75;entryDx=0;entryDy=0;strokeColor=#FF0000;" edge="1" parent="1" source="k82_jvPsIoT7OMSYVDa1-189" target="k82_jvPsIoT7OMSYVDa1-168">
          <mxGeometry relative="1" as="geometry">
            <Array as="points">
              <mxPoint x="602.5" y="-85" />
              <mxPoint x="602.5" y="-206" />
            </Array>
          </mxGeometry>
        </mxCell>
        <mxCell id="k82_jvPsIoT7OMSYVDa1-189" value="ESPECIALISTAS" style="shape=umlActor;verticalLabelPosition=bottom;verticalAlign=top;html=1;outlineConnect=0;strokeColor=#FF0000;" vertex="1" parent="1">
          <mxGeometry x="692.5" y="-130" width="45" height="90" as="geometry" />
        </mxCell>
        <mxCell id="k82_jvPsIoT7OMSYVDa1-195" style="edgeStyle=orthogonalEdgeStyle;rounded=0;orthogonalLoop=1;jettySize=auto;html=1;entryX=0;entryY=0.75;entryDx=0;entryDy=0;strokeColor=#006633;" edge="1" parent="1" source="k82_jvPsIoT7OMSYVDa1-193" target="k82_jvPsIoT7OMSYVDa1-166">
          <mxGeometry relative="1" as="geometry">
            <Array as="points">
              <mxPoint x="192.5" y="-155" />
              <mxPoint x="192.5" y="-303" />
            </Array>
          </mxGeometry>
        </mxCell>
        <mxCell id="k82_jvPsIoT7OMSYVDa1-198" style="edgeStyle=orthogonalEdgeStyle;rounded=0;orthogonalLoop=1;jettySize=auto;html=1;entryX=0;entryY=0.75;entryDx=0;entryDy=0;strokeColor=#006633;" edge="1" parent="1" source="k82_jvPsIoT7OMSYVDa1-193" target="k82_jvPsIoT7OMSYVDa1-181">
          <mxGeometry relative="1" as="geometry">
            <Array as="points">
              <mxPoint x="192.5" y="-155" />
              <mxPoint x="192.5" y="-115" />
            </Array>
          </mxGeometry>
        </mxCell>
        <mxCell id="k82_jvPsIoT7OMSYVDa1-193" value="QUEM RESERVOU&lt;div&gt;A SALA&lt;/div&gt;" style="shape=umlActor;verticalLabelPosition=bottom;verticalAlign=top;html=1;outlineConnect=0;strokeColor=#006633;" vertex="1" parent="1">
          <mxGeometry x="102.5" y="-200" width="45" height="90" as="geometry" />
        </mxCell>
        <mxCell id="k82_jvPsIoT7OMSYVDa1-206" value="" style="rounded=1;whiteSpace=wrap;html=1;strokeColor=#FFFFFF;fillColor=#FFFFFF;" vertex="1" parent="1">
          <mxGeometry x="-796" y="-329" width="50" height="60" as="geometry" />
        </mxCell>
        <mxCell id="k82_jvPsIoT7OMSYVDa1-155" value="APOIO TÉCNICO" style="shape=umlActor;verticalLabelPosition=bottom;verticalAlign=top;html=1;outlineConnect=0;strokeColor=#00FF00;" vertex="1" parent="1">
          <mxGeometry x="-791" y="-344" width="45" height="90" as="geometry" />
        </mxCell>
        <mxCell id="k82_jvPsIoT7OMSYVDa1-208" value="" style="rounded=1;whiteSpace=wrap;html=1;strokeColor=#FFFFFF;fillColor=#FFFFFF;" vertex="1" parent="1">
          <mxGeometry x="-793.5" y="-443" width="50" height="60" as="geometry" />
        </mxCell>
        <mxCell id="k82_jvPsIoT7OMSYVDa1-151" value="COORDENADORES" style="shape=umlActor;verticalLabelPosition=bottom;verticalAlign=top;html=1;outlineConnect=0;" vertex="1" parent="1">
          <mxGeometry x="-790" y="-473" width="45" height="90" as="geometry" />
        </mxCell>
        <mxCell id="k82_jvPsIoT7OMSYVDa1-211" value="" style="rounded=1;whiteSpace=wrap;html=1;strokeColor=#FFFFFF;fillColor=#FFFFFF;" vertex="1" parent="1">
          <mxGeometry x="-90" y="-443" width="50" height="60" as="geometry" />
        </mxCell>
        <mxCell id="k82_jvPsIoT7OMSYVDa1-212" value="" style="rounded=1;whiteSpace=wrap;html=1;strokeColor=#FFFFFF;fillColor=#FFFFFF;" vertex="1" parent="1">
          <mxGeometry x="-90" y="-329" width="50" height="60" as="geometry" />
        </mxCell>
        <mxCell id="k82_jvPsIoT7OMSYVDa1-153" value="INSTRUTORES" style="shape=umlActor;verticalLabelPosition=bottom;verticalAlign=top;html=1;outlineConnect=0;strokeColor=#0000FF;" vertex="1" parent="1">
          <mxGeometry x="-85" y="-473" width="45" height="90" as="geometry" />
        </mxCell>
        <mxCell id="k82_jvPsIoT7OMSYVDa1-157" value="ESPECIALISTAS" style="shape=umlActor;verticalLabelPosition=bottom;verticalAlign=top;html=1;outlineConnect=0;strokeColor=#FF0000;" vertex="1" parent="1">
          <mxGeometry x="-85" y="-344" width="45" height="90" as="geometry" />
        </mxCell>
        <mxCell id="k82_jvPsIoT7OMSYVDa1-213" value="" style="rounded=1;whiteSpace=wrap;html=1;strokeColor=#FFFFFF;fillColor=#FFFFFF;" vertex="1" parent="1">
          <mxGeometry x="40" y="-831" width="62.5" height="60" as="geometry" />
        </mxCell>
        <mxCell id="k82_jvPsIoT7OMSYVDa1-144" value="COORDENADORES" style="shape=umlActor;verticalLabelPosition=bottom;verticalAlign=top;html=1;outlineConnect=0;" vertex="1" parent="1">
          <mxGeometry x="48.75" y="-841" width="45" height="90" as="geometry" />
        </mxCell>
      </root>
    </mxGraphModel>
  </diagram>
</mxfile>
